<svg width="24" height="25" viewBox="0 0 24 25" fill="none" xmlns="http://www.w3.org/2000/svg">
<path d="M18.0001 5.14489C16.4088 3.55359 14.2505 2.65961 12.0001 2.65961C9.74961 2.65961 7.59135 3.55359 6.00005 5.14489C4.40875 6.73619 3.51477 8.89445 3.51477 11.1449C3.51477 13.3953 4.40875 15.5536 6.00005 17.1449L11.2701 22.4249C11.363 22.5186 11.4736 22.593 11.5955 22.6438C11.7173 22.6945 11.848 22.7207 11.9801 22.7207C12.1121 22.7207 12.2428 22.6945 12.3646 22.6438C12.4865 22.593 12.5971 22.5186 12.6901 22.4249L18.0001 17.0949C19.5847 15.5102 20.4749 13.3609 20.4749 11.1199C20.4749 8.87883 19.5847 6.72957 18.0001 5.14489V5.14489ZM16.5701 15.6649L12.0001 20.2549L7.43005 15.6649C6.5272 14.7612 5.91253 13.6101 5.66375 12.3572C5.41497 11.1042 5.54324 9.80563 6.03236 8.62557C6.52147 7.4455 7.34947 6.43694 8.41168 5.72737C9.4739 5.01779 10.7226 4.63907 12.0001 4.63907C13.2775 4.63907 14.5262 5.01779 15.5884 5.72737C16.6506 6.43694 17.4786 7.4455 17.9677 8.62557C18.4569 9.80563 18.5851 11.1042 18.3364 12.3572C18.0876 13.6101 17.4729 14.7612 16.5701 15.6649V15.6649ZM9.00005 8.07489C8.19277 8.88466 7.73945 9.98146 7.73945 11.1249C7.73945 12.2683 8.19277 13.3651 9.00005 14.1749C9.59981 14.7757 10.3636 15.186 11.1957 15.3543C12.0278 15.5226 12.891 15.4415 13.6771 15.121C14.4632 14.8006 15.1372 14.2552 15.6145 13.5531C16.0918 12.8511 16.3512 12.0238 16.3601 11.1749C16.3646 10.6081 16.2554 10.0461 16.039 9.52228C15.8225 8.99841 15.5033 8.52324 15.1001 8.12489C14.7037 7.71947 14.2311 7.39643 13.7095 7.17435C13.1878 6.95228 12.6274 6.83556 12.0605 6.83092C11.4935 6.82627 10.9313 6.93379 10.406 7.14728C9.8808 7.36077 9.40297 7.67602 9.00005 8.07489V8.07489ZM13.6901 12.7549C13.3111 13.1396 12.8103 13.3808 12.2732 13.4371C11.7361 13.4935 11.1961 13.3615 10.7456 13.0638C10.295 12.7661 9.96185 12.3211 9.80306 11.805C9.64427 11.2888 9.6697 10.7335 9.87501 10.234C10.0803 9.73456 10.4528 9.3219 10.9286 9.06662C11.4045 8.81135 11.9543 8.7293 12.484 8.83451C13.0137 8.93971 13.4904 9.22565 13.8326 9.64342C14.1748 10.0612 14.3612 10.5849 14.3601 11.1249C14.3455 11.7422 14.0865 12.3284 13.6401 12.7549H13.6901Z" fill="#7BD254"/>
</svg>
