<svg width="24" height="25" viewBox="0 0 24 25" fill="none" xmlns="http://www.w3.org/2000/svg">
<path d="M19.4401 13.6649C19.2201 13.6649 18.9901 13.5949 18.7701 13.5449C18.3246 13.4467 17.8868 13.3164 17.4601 13.1549C16.9962 12.9861 16.4862 12.9949 16.0284 13.1795C15.5706 13.3641 15.1972 13.7115 14.9801 14.1549L14.7601 14.6049C13.7861 14.0631 12.8911 13.3901 12.1001 12.6049C11.3149 11.8139 10.6419 10.9189 10.1001 9.94491L10.5201 9.66491C10.9635 9.44782 11.3109 9.07444 11.4955 8.6166C11.6801 8.15876 11.6889 7.64882 11.5201 7.18491C11.3613 6.75733 11.231 6.31971 11.1301 5.87491C11.0801 5.65491 11.0401 5.42491 11.0101 5.19491C10.8887 4.49053 10.5197 3.85265 9.96972 3.39615C9.41972 2.93964 8.7248 2.69452 8.0101 2.70491H5.0101C4.57913 2.70086 4.15235 2.78972 3.75881 2.96544C3.36527 3.14115 3.01421 3.3996 2.72953 3.72319C2.44485 4.04678 2.23324 4.4279 2.10909 4.84062C1.98494 5.25334 1.95118 5.68797 2.0101 6.11491C2.54284 10.3043 4.45613 14.1968 7.44775 17.1775C10.4394 20.1583 14.3388 22.0574 18.5301 22.5749H18.9101C19.6475 22.576 20.3595 22.3054 20.9101 21.8149C21.2265 21.532 21.4792 21.1851 21.6516 20.7972C21.8239 20.4094 21.9121 19.9893 21.9101 19.5649V16.5649C21.8979 15.8703 21.6449 15.2015 21.1944 14.6726C20.744 14.1437 20.1239 13.7875 19.4401 13.6649V13.6649ZM19.9401 19.6649C19.9399 19.8069 19.9095 19.9472 19.8509 20.0765C19.7923 20.2058 19.7068 20.3212 19.6001 20.4149C19.4887 20.5119 19.3581 20.5843 19.2168 20.6274C19.0755 20.6705 18.9267 20.6833 18.7801 20.6649C15.035 20.1847 11.5563 18.4714 8.89282 15.7952C6.2293 13.119 4.53251 9.63224 4.0701 5.88491C4.05419 5.73843 4.06813 5.59024 4.1111 5.4493C4.15407 5.30836 4.22517 5.17759 4.3201 5.06491C4.41381 4.95824 4.52916 4.87275 4.65848 4.81412C4.7878 4.7555 4.92812 4.72509 5.0701 4.72491H8.0701C8.30265 4.71973 8.52972 4.79579 8.71224 4.93998C8.89477 5.08417 9.02131 5.28748 9.0701 5.51491C9.1101 5.78824 9.1601 6.05824 9.2201 6.32491C9.33562 6.85205 9.48936 7.37009 9.6801 7.87491L8.2801 8.52491C8.1604 8.57983 8.05272 8.65785 7.96326 8.7545C7.87379 8.85115 7.8043 8.96452 7.75877 9.0881C7.71324 9.21168 7.69257 9.34304 7.69795 9.47463C7.70332 9.60622 7.73464 9.73545 7.7901 9.85491C9.2293 12.9377 11.7073 15.4157 14.7901 16.8549C15.0336 16.9549 15.3066 16.9549 15.5501 16.8549C15.6748 16.8103 15.7894 16.7414 15.8873 16.6521C15.9851 16.5628 16.0643 16.455 16.1201 16.3349L16.7401 14.9349C17.2571 15.1198 17.7847 15.2734 18.3201 15.3949C18.5868 15.4549 18.8568 15.5049 19.1301 15.5449C19.3575 15.5937 19.5608 15.7202 19.705 15.9028C19.8492 16.0853 19.9253 16.3124 19.9201 16.5449L19.9401 19.6649Z" fill="#7BD254"/>
</svg>
